<svg id="Calque_1" data-name="Calque 1" xmlns="http://www.w3.org/2000/svg" viewBox="0 0 745.1 541.1">
  <defs>
    <style>
      .cls-1 {
        fill: #050505;
      }

      .cls-2 {
        fill: #f23838;
      }

      .cls-3 {
        fill: #e23434;
      }

      .cls-4 {
        fill: #a31111;
      }

      .cls-5 {
        fill: #9a0505;
      }

      .cls-6 {
        fill: #940505;
      }

      .cls-7 {
        fill: #900505;
      }

      .cls-8 {
        fill: #950505;
      }

      .cls-9 {
        fill: #930505;
      }

      .cls-10 {
        fill: #910505;
      }

      .cls-11 {
        fill: #8f0505;
      }

      .cls-12 {
        fill: #920505;
      }

      .cls-13 {
        fill: #8b0505;
      }

      .cls-14 {
        fill: #8e0505;
      }

      .cls-15 {
        fill: #afafaf;
      }

      .cls-15, .cls-16, .cls-17, .cls-21, .cls-22, .cls-23, .cls-24, .cls-33, .cls-34, .cls-35, .cls-36, .cls-37, .cls-38, .cls-39 {
        stroke: #000;
      }

      .cls-15, .cls-16, .cls-17, .cls-18, .cls-19, .cls-20, .cls-21, .cls-22, .cls-23, .cls-24, .cls-33, .cls-34, .cls-35, .cls-36, .cls-37, .cls-38, .cls-39 {
        stroke-miterlimit: 10;
      }

      .cls-16 {
        fill: #056565;
      }

      .cls-17 {
        fill: #fafa05;
      }

      .cls-18 {
        fill: #307afa;
      }

      .cls-18, .cls-19, .cls-20 {
        stroke: #231f20;
      }

      .cls-19 {
        fill: #fa6505;
      }

      .cls-20 {
        fill: #50fa05;
      }

      .cls-21 {
        fill: #fafafa;
      }

      .cls-22 {
        fill: #4ff905;
      }

      .cls-23 {
        fill: #f90505;
      }

      .cls-24 {
        fill: #f9f905;
      }

      .cls-25 {
        fill: #890505;
      }

      .cls-26 {
        fill: #8c0505;
      }

      .cls-27 {
        fill: #860505;
      }

      .cls-28 {
        fill: #870505;
      }

      .cls-29 {
        fill: #101010;
      }

      .cls-30 {
        fill: #a5fa6d;
      }

      .cls-31 {
        fill: #fa7373;
      }

      .cls-32 {
        fill: #fafa8f;
      }

      .cls-33 {
        fill: #fa0505;
      }

      .cls-34 {
        fill: #f00505;
      }

      .cls-35 {
        fill: #f40505;
      }

      .cls-36 {
        fill: #057979;
      }

      .cls-37 {
        fill: #05fafa;
      }

      .cls-38 {
        fill: #70ef52;
      }

      .cls-39 {
        fill: #70ef52;
      }

      .cls-40 {
        fill: #9afacf;
      }
    </style>
  </defs>
  <title>pokedex</title>
  <path id="_Path_" data-name="&lt;Path&gt;" class="cls-1" d="M1.45,29c.3-.4.7-.7.8-1.1,3.4-14,12.5-22.1,26.2-24.8a105.85,105.85,0,0,1,20.3-2q169.5-.15,339-.1c6.4,0,12.4,1.6,18.8,3.8V47h4.2c19.3,0,38.7,0,58,.2A94.42,94.42,0,0,1,514.05,59c15,8.1,28.4,18.5,41.7,29,10.1,7.9,19.8,16.2,31.3,22.1,17.5,9.1,36.1,14.3,55.9,14.3,32.5,0,65-.2,97.4-.4h5.8c.1,2.3.2,4.1.2,5.9v106.5q0,129.15-.1,258.4a94.07,94.07,0,0,1-2,18.3,22.41,22.41,0,0,1-21.7,18.6c-3,.1-6,.4-9,.4H405.85c-.7,4.3-3.9,6-7.5,7-3,.9-6.1,1.4-9.2,2.1-.4.1-.6.6-.9.9h-365c-13.9-3.1-20.3-12.6-22-26Q1.55,272.51,1.45,29Z" transform="translate(-1.25 -1.01)"/>
  <path id="_Path_2" data-name="&lt;Path&gt;" class="cls-2" d="M344.45,520H53.55a101,101,0,0,0-11,.3c-8.3.8-14-5.5-15-13.4a40.12,40.12,0,0,1-.2-6c0-2.2.2-4.3.2-6.5V138c0-3.5-.2-7-.2-10.5a31.63,31.63,0,0,1,.5-6.9c.8-3.5,2.4-4.5,6.1-4.6s7.3,0,11,0c24.7,0,49.3-.1,74,.2,15.8.1,30.9-3.4,45.5-9.1s27.1-14.6,39-24.4a452.15,452.15,0,0,1,46-34.1c6-3.8,12.3-7.3,19.4-8.8a26.31,26.31,0,0,1,4.9-.7h64c5.5,0,8.3,2.5,8.9,7.9a50.48,50.48,0,0,1,.1,5.5q-.15,81-.2,162-.3,102-.9,203.9c-.1,15.7,0,31.3-.1,47-.1,17.5-.4,34.9-.7,52.4A7.12,7.12,0,0,0,344.45,520Z" transform="translate(-1.25 -1.01)"/>
  <path id="_Path_3" data-name="&lt;Path&gt;" class="cls-3" d="M404.45,478.61c-10.1-7.5-34.7-7.7-47-1.1v-5.1q0-191.7-.1-383.4c0-4.2,1.2-6.7,5.1-7.9a37.25,37.25,0,0,1,8.6-2.1c6.3-.3,12.6-.1,19-.1,4.1,0,7.7,1.9,11.2,3.8,2.5,1.4,2.8,3.9,3.3,6.3a20.44,20.44,0,0,1,0,3.5v380.4C404.45,474.81,404.45,476.61,404.45,478.61Z" transform="translate(-1.25 -1.01)"/>
  <path id="_Path_4" data-name="&lt;Path&gt;" class="cls-2" d="M404.35,6.51v21.4c-3.6-1.4-6.9-3.2-10.3-3.8a104.67,104.67,0,0,0-16.8-1.2q-37.5-.15-75,.1a198.64,198.64,0,0,0-24.3,1.8c-12.6,1.8-24.2,6.8-35.1,13.2-13.3,8-25.6,17.5-37.7,27-9.3,7.3-18.4,14.8-28.8,20.4a108.28,108.28,0,0,1-23.9,9.8c-1.8.5-3.9.1-5.4,1-1.8.9-3.3,2.3-5.4.9-2.3,3.4-6,.5-8.9,2.2-1.9,1.1-4.6.8-7,.8-4.4,0-8.7.2-13.1.2s-9-.2-13.5-.2h-68a26.73,26.73,0,0,1-4-.1c-3.4-.4-4.7-1.7-4.7-5.1,0-22.5-.4-45,.1-67.5.3-11.9,6.4-20.6,19.9-23.4a44.06,44.06,0,0,1,8.9-.9q167.25,0,334.5-.1A51.87,51.87,0,0,1,404.35,6.51Z" transform="translate(-1.25 -1.01)"/>
  <path id="_Path_5" data-name="&lt;Path&gt;" class="cls-2" d="M406.65,530V49.21c1.2-.1,2.4-.2,3.5-.2,20.2,0,40.3-.3,60.5.2,16.5.4,31.8,5.6,46.2,13.6,13.7,7.7,26,17.3,38.1,27.1,11.9,9.6,23.9,19,38,25.3a131.89,131.89,0,0,0,33.7,9.9,124.23,124.23,0,0,0,25.8,1.5c29.8-1.6,59.6-.3,89.4-.7.6,0,1.3.1,2.3.1.1,1.5.2,2.9.2,4.4q0,182.55-.1,365c0,6.9-.4,14-3,20.5-3.2,7.9-8.6,12.9-17.5,13.2-5.8.2-11.6.7-17.4.7H412.85A59.21,59.21,0,0,1,406.65,530Z" transform="translate(-1.25 -1.01)"/>
  <path id="_Path_6" data-name="&lt;Path&gt;" class="cls-2" d="M345.45,39.11h10v368.8c0,40.8-.1,81.6,0,123-1.9.1-3.5.2-5,.2-59.8-.1-119.7,0-179.5-.2-43.5-.1-86.9-.6-130.4-.8-6.4,0-12-2.1-16.1-6.7a22.62,22.62,0,0,1-5.9-12.2,116.32,116.32,0,0,1-1.1-14.4q-.15-187.95,0-376v-4.6h9.8c-2,4.5-3.4,9-1.9,14,.4,1.2.1,2.6.1,4v361.5a106.26,106.26,0,0,0,.1,11.3c1.1,10.9,9.3,16.7,20.2,15.7,2.3-.2,4.6-.6,6.9-.6h294.4c.1-1.6.2-3.1.2-4.5.1-33.7.2-67.3.2-101,.1-41.8,0-83.7.1-125.5q.3-102.15.9-204.4c0-11.5,0-23,.2-34.5C348.65,47.61,348.35,43.21,345.45,39.11Z" transform="translate(-1.25 -1.01)"/>
  <path id="_Path_7" data-name="&lt;Path&gt;" class="cls-4" d="M6.85,524.21c-2.1-5.1-3.5-9.6-3.5-14.5V47.21c0-3.8-.2-7.7-.1-11.5.3-13.4,6.4-23.1,18.7-28.5,3.7-1.6,7.8-2.3,11.9-3.1a24.51,24.51,0,0,0-11.2,13.2c-1.1,3.2-2.2,6.7-2.2,10-.2,22.7-.1,45.3-.1,68,0,1.3.2,2.6.3,4.1-4.1,1.3-5.4,4.5-5.4,9,.2,40.3.2,80.4.2,120.6V491c0,15.4,0,15.4-6.8,29.4C8.15,521.51,7.65,522.51,6.85,524.21Z" transform="translate(-1.25 -1.01)"/>
  <path id="_Path_8" data-name="&lt;Path&gt;" class="cls-5" d="M363.15,539.81H39c1.4-2.9,2.7-5.2,4-7.8h5.1c36.5,0,73-.6,109.5.2,64.3,1.4,128.6.3,192.9.8a6.92,6.92,0,0,1,5.7,2.2C358.25,537.11,361,538.41,363.15,539.81Z" transform="translate(-1.25 -1.01)"/>
  <path id="_Path_9" data-name="&lt;Path&gt;" class="cls-3" d="M404.45,61.41c-15.6-7.5-31.1-7.1-47-.9,0-9.4-.1-18.8.1-28.3a3.94,3.94,0,0,1,2-3c3.6-1.6,7.3-3.7,11.1-3.9,7.6-.5,15.3-1.4,22.8.7a37.67,37.67,0,0,1,7.8,3.2c2.4,1.3,3.3,3.7,3.3,6.3C404.45,44.21,404.45,52.81,404.45,61.41Z" transform="translate(-1.25 -1.01)"/>
  <path id="_Path_10" data-name="&lt;Path&gt;" class="cls-3" d="M404.45,527.61c-15.6-6.7-30.9-6.5-46.7-1a20,20,0,0,1-.3-2.8c0-6.3.2-12.7-.1-19-.1-3.2,1.2-4.7,3.8-6.1,3.9-2.1,8.2-2.8,12.4-3.2,9-.9,17.9-.7,26.2,3.5a7.81,7.81,0,0,1,4.6,7.5C404.45,513.51,404.45,520.51,404.45,527.61Z" transform="translate(-1.25 -1.01)"/>
  <path id="_Path_11" data-name="&lt;Path&gt;" class="cls-5" d="M17.45,113.81c0-2.9-.1-5.4,0-7.8s1.5-3.6,3.8-3.9a13.4,13.4,0,0,1,2-.1h80.9c1,0,1.9.1,3.2.2-.3,4.5-2.5,7.9-4.4,11.6Z" transform="translate(-1.25 -1.01)"/>
  <path id="_Path_12" data-name="&lt;Path&gt;" class="cls-5" d="M137.45,112c1.4-3.8,2.8-7.7,4.4-11.4.2-.4,1.4-.4,3-.8-1.5,4-2.6,7.2-3.8,10.4,3.3-1.4,4.2-4.2,5-6.8,1.1-3.6,3.1-5.2,6.7-6.2,16.3-4.5,30.7-12.5,44-22.9,12.3-9.7,24.9-19,37.4-28.5a16.68,16.68,0,0,1,2.5-1.3c-.5,2.1-.9,3.5-1.2,4.8a22.65,22.65,0,0,1-9.5,13.1c-10,7-19.5,14.8-29,22.5-14.7,11.9-30.8,20.9-49.4,25.1-3,.7-6.1,1.3-9.1,1.9C138.15,112.41,137.85,112.41,137.45,112Z" transform="translate(-1.25 -1.01)"/>
  <path id="_Path_13" data-name="&lt;Path&gt;" class="cls-5" d="M272.35,36.71c1.2-3.3,2.3-6.2,3.6-9.7,3.3-.3,6.8-.8,10.4-1.1,23.4-1.6,46.8-.8,70.3-1h5.7a28,28,0,0,0-4.2,2.7c-1.3,1.2-2.8,2.5-3.3,4-.4,1.3.5,3.1.8,5C327.85,36.71,300.45,36.71,272.35,36.71Z" transform="translate(-1.25 -1.01)"/>
  <path id="_Path_14" data-name="&lt;Path&gt;" class="cls-3" d="M390.25,475.21v18.5c-11.3-1.5-22.2-1.2-32.8,4.4v-15.8a3.08,3.08,0,0,1,2.4-3.3c3.6-1.2,7.1-2.8,10.7-3.5C377,474.41,383.35,475,390.25,475.21Z" transform="translate(-1.25 -1.01)"/>
  <path id="_Path_15" data-name="&lt;Path&gt;" class="cls-3" d="M357.55,80.91V63.51c10.2-6.5,21.2-5.9,32.6-4.8v18.1C379,75.71,368.05,75.61,357.55,80.91Z" transform="translate(-1.25 -1.01)"/>
  <path id="_Path_16" data-name="&lt;Path&gt;" class="cls-5" d="M380.75,524.51c4.6.5,9.2.7,13.7,1.6a24.16,24.16,0,0,1,7.2,3.1c2.4,1.4,2.5,3.9.2,5.7a11.4,11.4,0,0,1-3.4,1.9c-11.4,4.2-22.9,4.1-34.5.8a16.62,16.62,0,0,1-4.8-2.4c-2.7-1.9-2.4-4.5.5-6.3a27,27,0,0,1,14.1-3.9h7Z" transform="translate(-1.25 -1.01)"/>
  <path id="_Path_17" data-name="&lt;Path&gt;" class="cls-3" d="M392.65,77.31V59c1.7.5,3.1.9,4.7,1.3V78C395.65,77.81,394.25,77.61,392.65,77.31Z" transform="translate(-1.25 -1.01)"/>
  <path id="_Path_18" data-name="&lt;Path&gt;" class="cls-3" d="M392.65,493.91v-18.1c1.8.5,3.2,1,4.6,1.4v18.1C395.55,494.71,394.15,494.31,392.65,493.91Z" transform="translate(-1.25 -1.01)"/>
  <path id="_Path_19" data-name="&lt;Path&gt;" class="cls-3" d="M404.45,82.21c-2-1.1-3.4-1.9-4.7-2.7V61.81c3.5,1.5,4.6,4.1,4.7,7.2C404.55,73.21,404.45,77.31,404.45,82.21Z" transform="translate(-1.25 -1.01)"/>
  <path id="_Path_20" data-name="&lt;Path&gt;" class="cls-3" d="M404.45,499.11c-1.9-1.1-3.4-1.8-4.7-2.6v-17.7c3.7,1.3,4.6,4.1,4.7,7.1C404.55,490,404.45,494.21,404.45,499.11Z" transform="translate(-1.25 -1.01)"/>
  <path id="_Path_21" data-name="&lt;Path&gt;" class="cls-6" d="M15.85,510.11c2,3.5,1.3,6.4-.2,9.3-1.7,3.4-3.2,7.1-5,11.3-1.3-1.7-2.1-2.8-2.7-3.5C10.65,521.31,13.25,515.91,15.85,510.11Z" transform="translate(-1.25 -1.01)"/>
  <path id="_Path_22" data-name="&lt;Path&gt;" class="cls-7" d="M235.65,54.71a124.39,124.39,0,0,1,4.7-12c.8-1.5,2.8-2.4,5-3.2-1.4,3.9-2.4,8-4.2,11.7-.8,1.7-3.1,2.7-4.7,3.9A5.94,5.94,0,0,1,235.65,54.71Z" transform="translate(-1.25 -1.01)"/>
  <path id="_Path_23" data-name="&lt;Path&gt;" class="cls-8" d="M110.05,113.91h-3.9c0-.4-.2-.7-.1-1,1.1-2.6,2.2-5.1,3.3-7.7.8-1.9,1.9-3.5,4.8-3C114,106.51,111,109.71,110.05,113.91Z" transform="translate(-1.25 -1.01)"/>
  <path id="_Path_24" data-name="&lt;Path&gt;" class="cls-9" d="M14.05,534.21c-.5-.9-1.6-2-1.4-2.5a81.71,81.71,0,0,1,6.1-12.2c2.6,5.8-2.3,9.6-3.5,14.4A2.66,2.66,0,0,0,14.05,534.21Z" transform="translate(-1.25 -1.01)"/>
  <path id="_Path_25" data-name="&lt;Path&gt;" class="cls-8" d="M112.45,113.21l3.9-9c.8-1.9,1.9-2.5,4.4-1.5-1.5,3.5-2.8,7-4.5,10.3-.4.8-2.1.9-3.2,1.3A3,3,0,0,0,112.45,113.21Z" transform="translate(-1.25 -1.01)"/>
  <path id="_Path_26" data-name="&lt;Path&gt;" class="cls-10" d="M137.45,112h1c-3.1,1.2-3.1,1.2-7.4.4,1.5-3.5,2.8-7,4.5-10.3.4-.8,2.1-.9,3.7-1.5-1.5,3.6-2.7,6.3-3.8,9C135,111.21,135.65,112.11,137.45,112Z" transform="translate(-1.25 -1.01)"/>
  <path id="_Path_27" data-name="&lt;Path&gt;" class="cls-9" d="M118.35,114.71c5.3-12.3,5.3-12.3,8.7-12-1.6,3.6-2.9,7-4.6,10.3C122,113.81,120.35,113.91,118.35,114.71Z" transform="translate(-1.25 -1.01)"/>
  <path id="_Path_28" data-name="&lt;Path&gt;" class="cls-10" d="M16.65,535.81c1.8-3.9,3.5-7.4,5.1-10.9,1.7.7,2.9,1.2,2.2,3-1.1,2.6-2.2,5.1-3.3,7.7C19.65,537.91,18.35,537.31,16.65,535.81Z" transform="translate(-1.25 -1.01)"/>
  <path id="_Path_29" data-name="&lt;Path&gt;" class="cls-6" d="M128.35,113.81h-3.6c1.6-3.6,3-6.9,4.5-10.2.5-1.2.6-1.2,3.5-1.2C131.25,106.31,129.85,109.91,128.35,113.81Z" transform="translate(-1.25 -1.01)"/>
  <path id="_Path_30" data-name="&lt;Path&gt;" class="cls-11" d="M244.45,48.41c1.2-3.2,2.4-6.3,3.5-9.5.7-1.9,2.1-2.6,4.7-2.9-2.4,4.9-2.7,10.2-7.3,13Z" transform="translate(-1.25 -1.01)"/>
  <path id="_Path_31" data-name="&lt;Path&gt;" class="cls-7" d="M266.15,30.51c-1.3,4.1-1.7,8.9-8,10.8C261.15,37.11,260.25,31.51,266.15,30.51Z" transform="translate(-1.25 -1.01)"/>
  <path id="_Path_32" data-name="&lt;Path&gt;" class="cls-8" d="M26.35,540.41c1.6-3.3,2.7-5.7,4-8,.4-.6,1.5-.8,2.2-1.2.3.7,1,1.5.8,2.1a29.54,29.54,0,0,1-3,6.2C30,540,28.45,539.91,26.35,540.41Z" transform="translate(-1.25 -1.01)"/>
  <path id="_Path_33" data-name="&lt;Path&gt;" class="cls-12" d="M252.75,43.91c-.6-3.1,1.7-5.2,2.3-7.8a6.1,6.1,0,0,1,1.9-2.7c.4-.4,1.2-.3,1.9-.4C257.35,40.11,256.35,42,252.75,43.91Z" transform="translate(-1.25 -1.01)"/>
  <path id="_Path_34" data-name="&lt;Path&gt;" class="cls-13" d="M266.35,37.51c1.9-3.4,1.4-8.1,6.5-9.8C271.15,36.51,270.45,37.61,266.35,37.51Z" transform="translate(-1.25 -1.01)"/>
  <path id="_Path_35" data-name="&lt;Path&gt;" class="cls-14" d="M22,538.31c1.2-2.7,2.3-5.5,3.5-8.2.3-.5,1.2-.8,1.8-1.1.3.8,1,1.7.8,2.4a29.54,29.54,0,0,1-2.8,6.3c-.5.8-1.9,1.1-2.9,1.6A6.89,6.89,0,0,0,22,538.31Z" transform="translate(-1.25 -1.01)"/>
  <path id="_Path_36" data-name="&lt;Path&gt;" class="cls-7" d="M40.75,531.71c-2.6,3.5-2.6,7.8-7,9.3a12.21,12.21,0,0,1,2.7-8.3C37.05,532,38.75,532.21,40.75,531.71Z" transform="translate(-1.25 -1.01)"/>
  <path id="_Path_37" data-name="&lt;Path&gt;" class="cls-1" d="M413.45,173.31c0-9.3,0-18.7-.1-28-.2-22.5-.5-44.9-.6-67.4a32.77,32.77,0,0,1,1.2-8.8c1.4-5,4.3-7,9.5-7.1,7.7-.1,15.3,0,23,0,13,0,26,.1,39,0,7.3-.1,14,2.1,20.3,5.5,17.5,9.4,33.1,21.5,48.6,33.8,11,8.8,21.7,18.1,34.6,24.3,8.1,3.9,16.1,7.8,25.2,8.9,1.4.2,2.6,1.2,4,1.6,11.2,3.1,22.6,3.1,34.1,3,20.3-.1,40.7-.1,61-.1,4.7,0,9.3.2,14-.2,6.8-.5,10.4,1.6,10.4,10.1-.2,58.7-.1,117.3-.1,176v174.5a27.64,27.64,0,0,1-2.7,13c-3.3,6.4-8.5,9.5-15.6,9.5q-149.7,0-299.4.1h-1.5c-3.3-.1-3.5-.4-3.6-3.9v-2q-.15-74-.2-148" transform="translate(-1.25 -1.01)"/>
  <path id="_Path_38" data-name="&lt;Path&gt;" class="cls-15" d="M184.75,131h133.5c7.8,0,12,4,12.2,11.8v217.4c0,1.7,0,3.3-.1,5-.5,6.3-4.7,10.4-11,10.7-1.5.1-3,.1-4.5.1q-113,0-225.9.1a10.51,10.51,0,0,1-8.3-3.3q-18.15-18.6-36.8-36.7a10.35,10.35,0,0,1-3.5-8.2q.15-90.75.1-181.4V142c-.2-7,3.4-10.9,10.4-10.9Q117.75,131,184.75,131Z" transform="translate(-1.25 -1.01)"/>
  <path id="_Path_39" data-name="&lt;Path&gt;" class="cls-16" d="M279.75,428.11c-.4-4-.7-7.3-1-10.5l-.3-4.5c-.3-3.4-.6-6.9-.9-10.3a10.77,10.77,0,0,1,.1-4c.4-1.6,1.2-2.9,3.4-2.9,5.3.2,10.7,0,16,.1,2.7.1,3.6.8,3.4,3.7-.4,6.2-1.1,12.5-1.6,18.7-.2,2.9,0,5.9,0,9.4,2.1,0,4.2.1,6.3,0,3.3-.2,6.6-.6,9.8-.9s6.5-.8,9.8-.9c4.6-.2,5.7,1,5.7,5.4q.15,6,0,12c-.1,4.3-2.1,5.5-6.3,5.1-8-.8-16.1-1.1-24.2-1.6-1.5,10.1,1,19.6.5,29.9-1.7.4-3.5,1.2-5.3,1.2-4.5.2-9,.1-13.5,0-3.6,0-4.3-.6-4.1-4,.5-6.1,1.3-12.1,1.8-18.2.2-2.8,0-5.6,0-8.8-4.4.1-8.4-.5-12.5.6-1.7.5-3.6.1-5.5.3-2.9.2-5.9.5-8.8.9s-5-1.1-5-4c-.2-5-.1-10,0-15,.1-2.5,1.6-3.8,4.2-3.9a58.68,58.68,0,0,1,5.9.5C264.65,427,271.65,427.51,279.75,428.11Z" transform="translate(-1.25 -1.01)"/>
  <path id="_Path_40" data-name="&lt;Path&gt;" class="cls-17" d="M150.05,502H97.15c-4.8,0-6.8-2.1-6.8-7,.1-13.6.1-27.3,0-40.9,0-4.3,1.8-6.5,5.9-7a26.73,26.73,0,0,1,4-.1h99.4c1.3,0,2.7,0,4,.1,3.2.3,5.3,1.9,6,5a25.18,25.18,0,0,1,.8,5.4c.1,11.7.1,23.3,0,35a15.69,15.69,0,0,1-.9,4.8c-1.1,3.5-2.9,4.7-6.6,4.7Z" transform="translate(-1.25 -1.01)"/>
  <path id="_Path_41" data-name="&lt;Path&gt;" class="cls-18" d="M65.35,385.71c10.4-.1,19,8,19.1,18.2.1,10.8-8,18.7-18.5,19.5-11.1.8-19.8-9.3-19.7-18.1C46.45,393.61,53.55,385.91,65.35,385.71Z" transform="translate(-1.25 -1.01)"/>
  <path id="_Path_42" data-name="&lt;Path&gt;" class="cls-19" d="M200.55,400c6.7,0,13.3-.1,20,0,3.9,0,5.8,1.7,6.1,5.1.3,3-.7,4.8-3.5,5.9a16.06,16.06,0,0,1-5.3,1c-11.7.1-23.3.1-35,0a16.06,16.06,0,0,1-5.3-1c-2.9-1.1-3.9-3.4-3.3-6.5a5,5,0,0,1,5.2-4.4C186.55,399.91,193.55,400,200.55,400Z" transform="translate(-1.25 -1.01)"/>
  <path id="_Path_43" data-name="&lt;Path&gt;" class="cls-20" d="M129.05,412c-5.7,0-11.3.1-17,0a19.1,19.1,0,0,1-5.8-1,5.77,5.77,0,0,1-3.8-6.3,5.9,5.9,0,0,1,5.6-4.7c14-.1,27.9-.1,41.9,0a5.44,5.44,0,0,1,5.5,4.7,5.37,5.37,0,0,1-3.7,6.2,19.11,19.11,0,0,1-5.3,1C140.65,412.11,134.85,412,129.05,412Z" transform="translate(-1.25 -1.01)"/>
  <path id="_Path_44" data-name="&lt;Path&gt;" class="cls-21" d="M71.05,88.41c-17.7,1-39.5-15-39.4-39.8.1-20.2,16.6-39.5,39.9-39.4s39.7,19.5,39.7,39.7C111.25,73.41,89.35,89.71,71.05,88.41Z" transform="translate(-1.25 -1.01)"/>
  <path id="_Path_45" data-name="&lt;Path&gt;" class="cls-22" d="M187.75,12.81c6.1,0,8.9,2.8,8.9,8.7,0,5.4-3.7,9.4-8.7,9.4a9.83,9.83,0,0,1-9.3-9.2C178.45,16.91,182.65,12.81,187.75,12.81Z" transform="translate(-1.25 -1.01)"/>
  <path id="_Path_46" data-name="&lt;Path&gt;" class="cls-23" d="M125.05,12.81c5.7,0,9.3,3.2,9.3,8.6a9.26,9.26,0,0,1-9.3,9.5c-4.9,0-8.6-4.1-9-9.2C115.85,17.11,120.05,11.91,125.05,12.81Z" transform="translate(-1.25 -1.01)"/>
  <path id="_Path_47" data-name="&lt;Path&gt;" class="cls-24" d="M156.45,12.71c5.7,0,9.1,3.3,9.2,8.8a9,9,0,0,1-9,9.3,9.44,9.44,0,0,1-9.3-9.1C147.25,16.51,151.05,12.71,156.45,12.71Z" transform="translate(-1.25 -1.01)"/>
  <path id="_Path_48" data-name="&lt;Path&gt;" class="cls-2" d="M415.35,73h5.3c18.2,0,36.3.2,54.5-.1a40.47,40.47,0,0,1,21.9,5.6c10.2,6.2,20.3,12.7,29.9,19.7,11.4,8.3,22.1,17.6,33.3,26.1a125.91,125.91,0,0,0,53.6,23.7,128.32,128.32,0,0,0,33.3,1.8c21.6-1.5,43.2-.5,64.9-.8a59.64,59.64,0,0,1,9.4.8c4.2.6,5.2,2,5.2,6.4q0,174.45-.1,349a51.53,51.53,0,0,1-.8,10.4c-.7,3.7-1.7,4.2-5.5,4.4-2.8.1-5.7.1-8.5.1H416.65v-5c-.1-30.8-.2-61.7-.2-92.5-.1-39.2,0-78.3-.2-117.5-.2-65-.6-129.9-.8-194.9C415.35,98,415.35,85.81,415.35,73Z" transform="translate(-1.25 -1.01)"/>
  <path id="_Path_49" data-name="&lt;Path&gt;" class="cls-5" d="M728.45,516.11V503q0-163.2-.1-326.4c0-7.5,2-13.9,6.1-21.1V495c0,3.3.1,6.7-.1,10A13.47,13.47,0,0,1,728.45,516.11Z" transform="translate(-1.25 -1.01)"/>
  <path id="_Path_50" data-name="&lt;Path&gt;" class="cls-5" d="M584.15,126.31c-1.2,2.8-2.2,5.2-3.4,7.8-4.8-1.2-8.6-3.8-12.2-6.6-13.3-10.1-26.4-20.4-39.7-30.6-4.6-3.5-9.4-6.8-14.3-9.9-2.1-1.3-2.7-2.7-1.8-4.9.8-1.9,1.6-3.9,2.4-6.1,8.2,4.5,15.1,10.1,22.1,15.5,11.1,8.6,22.1,17.5,33.2,26C574.85,120.81,579.55,123.31,584.15,126.31Z" transform="translate(-1.25 -1.01)"/>
  <path id="_Path_51" data-name="&lt;Path&gt;" class="cls-5" d="M614.05,138a25.81,25.81,0,0,1,4,.4,82.3,82.3,0,0,0,21.5,2.7c25.8-.1,51.6,0,77.4-.1h5.1c-.3,1-.5,1.6-.7,2.2-.9,3-2.8,3.9-5.9,3.9-17.7-.2-35.3-.2-53,0-10.3.1-20.5.9-30.8.8-5.7,0-11.5-1.1-17.2-2-3.3-.5-3.6-1.3-2.3-4.3C612.75,140.51,613.35,139.31,614.05,138Z" transform="translate(-1.25 -1.01)"/>
  <path id="_Path_52" data-name="&lt;Path&gt;" class="cls-5" d="M483.75,64.81c-.8,1.9-1.6,3.8-2.5,5.9H417c1-4.5,3-6.7,7.1-6.7,19.5-.1,39,0,58.5,0A7.35,7.35,0,0,0,483.75,64.81Z" transform="translate(-1.25 -1.01)"/>
  <path id="_Path_53" data-name="&lt;Path&gt;" class="cls-8" d="M508.05,71.21c-.9,3.3-1.9,6.3-4.3,9.1-1.2-.9-2.1-1.6-3.2-2.5,1.1-2.7,2.2-5.3,3.4-8.2C505.65,70.31,506.85,70.71,508.05,71.21Z" transform="translate(-1.25 -1.01)"/>
  <path id="_Path_54" data-name="&lt;Path&gt;" class="cls-12" d="M506.25,81.71c1.5-3.3,2.6-5.9,4-8.8,1.1.5,2.1,1,3.3,1.5-1.3,3.1-2.4,5.8-3.7,9A23.68,23.68,0,0,0,506.25,81.71Z" transform="translate(-1.25 -1.01)"/>
  <path id="_Path_55" data-name="&lt;Path&gt;" class="cls-8" d="M498.45,66.71c1.6.7,2.4,1.1,3.7,1.6-1.2,2.8-2.3,5.6-3.6,8.5-2.2-.7-3.9-1.2-2.7-3.7C496.75,71.11,497.45,69.21,498.45,66.71Z" transform="translate(-1.25 -1.01)"/>
  <path id="_Path_56" data-name="&lt;Path&gt;" class="cls-25" d="M483.75,70.61c.7-2.2,1.4-4.2,2.2-6.4h4.8c-1.1,2.6-1.8,4.9-3.1,6.9C486.65,72.71,485.15,72.21,483.75,70.61Z" transform="translate(-1.25 -1.01)"/>
  <path id="_Path_57" data-name="&lt;Path&gt;" class="cls-6" d="M493,74.41c-1.5-.6-2.2-.9-3.5-1.4,1.1-2.6,2.1-5.1,3.4-7.5.2-.4,1.9-.1,3.7-.1C495.25,68.81,494.15,71.41,493,74.41Z" transform="translate(-1.25 -1.01)"/>
  <path id="_Path_58" data-name="&lt;Path&gt;" class="cls-26" d="M585.25,136.81c-.9-.5-1.6-.8-2.6-1.3,1.2-2.8,2.4-5.5,3.7-8.4C589.15,129.91,589.15,129.91,585.25,136.81Z" transform="translate(-1.25 -1.01)"/>
  <path id="_Path_59" data-name="&lt;Path&gt;" class="cls-13" d="M728.85,160.61c-.5-5.6,3.2-9.6,5.2-14.2C734.85,152.11,730.85,156,728.85,160.61Z" transform="translate(-1.25 -1.01)"/>
  <path id="_Path_60" data-name="&lt;Path&gt;" class="cls-27" d="M733.15,142.31c-1.6,3.4-2.9,6.4-4.4,9.6-1.6-.9-2.2-2-1.3-3.9,1.1-2.2,2.2-4.4,3.3-6.8C731.55,141.61,732.25,141.91,733.15,142.31Z" transform="translate(-1.25 -1.01)"/>
  <path id="_Path_61" data-name="&lt;Path&gt;" class="cls-11" d="M590.35,138.91c-.9-.4-1.6-.8-2.2-1.1,0-.4-.1-.7,0-.9.8-1.9,1.5-3.9,2.5-5.8.3-.5,1.3-.6,1.9-.9.3.7,1,1.5.8,2C592.45,134.41,591.35,136.51,590.35,138.91Z" transform="translate(-1.25 -1.01)"/>
  <path id="_Path_62" data-name="&lt;Path&gt;" class="cls-12" d="M722.35,147.31c2-6.1,2-6.1,5.6-5.9C725.45,147.81,725.45,147.81,722.35,147.31Z" transform="translate(-1.25 -1.01)"/>
  <path id="_Path_63" data-name="&lt;Path&gt;" class="cls-28" d="M607.55,145.51c-1.7-4.2.7-6.5,2-9.5.7.6,1.5,1,1.5,1.4C611.05,140.11,609.85,142.51,607.55,145.51Z" transform="translate(-1.25 -1.01)"/>
  <path id="_Path_64" data-name="&lt;Path&gt;" class="cls-8" d="M601.45,142.21c1.2-2.4,2.4-4.8,3.8-7.8,2.3,3.3.3,5.3-.7,7.3-.4.7-1.4,1.1-2.2,1.6C602.05,142.91,601.75,142.61,601.45,142.21Z" transform="translate(-1.25 -1.01)"/>
  <path id="_Path_65" data-name="&lt;Path&gt;" class="cls-11" d="M598.85,142.21c-2.5-1.7-.9-3.1-.4-4.2a23.55,23.55,0,0,1,2.4-4,8.4,8.4,0,0,1,1.8.4C601.35,137.11,600.05,139.61,598.85,142.21Z" transform="translate(-1.25 -1.01)"/>
  <path id="_Path_66" data-name="&lt;Path&gt;" class="cls-11" d="M597.25,132.51c-.6,3-.4,6.3-4.3,8.1C594.25,134.51,594.45,134.31,597.25,132.51Z" transform="translate(-1.25 -1.01)"/>
  <path id="_Path_67" data-name="&lt;Path&gt;" class="cls-29" d="M223.75,365.91c1.4-3.1,3.7-2.6,5.8-2.6h61.3a12.13,12.13,0,0,1,4.3.7c.6.2.8,1.4,1.7,3h-71.4A15,15,0,0,1,223.75,365.91Z" transform="translate(-1.25 -1.01)"/>
  <path id="_Path_68" data-name="&lt;Path&gt;" class="cls-1" d="M223.65,339.41c1-1.1,1.5-2,2.2-2.3a9.9,9.9,0,0,1,3-.2h62.9a9.4,9.4,0,0,1,3.4.3c.6.2.9,1.3,1.5,2.1C292.55,340.31,229.35,340.51,223.65,339.41Z" transform="translate(-1.25 -1.01)"/>
  <path id="_Path_69" data-name="&lt;Path&gt;" class="cls-1" d="M224.05,347.91c.6-.6,1-1.5,1.8-1.8a9.9,9.9,0,0,1,3-.2h62.9a9.4,9.4,0,0,1,3.4.3c.6.2.9,1.3,1.8,2.6h-72.3Z" transform="translate(-1.25 -1.01)"/>
  <path id="_Path_70" data-name="&lt;Path&gt;" class="cls-1" d="M223.85,357.71c.7-1.2,1-2.4,1.7-2.6a9.61,9.61,0,0,1,3.4-.3h62.4a18,18,0,0,1,4,.3,2.07,2.07,0,0,1,1,1.4,1.63,1.63,0,0,1-1.1,1.3,14.64,14.64,0,0,1-3,.2h-63.9A25.91,25.91,0,0,1,223.85,357.71Z" transform="translate(-1.25 -1.01)"/>
  <path id="_Path_71" data-name="&lt;Path&gt;" class="cls-30" d="M192.35,17.11c0,1.9-1.4,2.9-3.4,2.9s-3.7-1.1-3.4-2.6c.4-1.9,2.1-2.2,3.7-2.4A2.7,2.7,0,0,1,192.35,17.11Z" transform="translate(-1.25 -1.01)"/>
  <path id="_Path_72" data-name="&lt;Path&gt;" class="cls-31" d="M123.55,16.71c3.4-1.9,5.1-2,5.8-.1a2.42,2.42,0,0,1-1.6,3.2C125.65,20.71,124.35,19.61,123.55,16.71Z" transform="translate(-1.25 -1.01)"/>
  <path id="_Path_73" data-name="&lt;Path&gt;" class="cls-32" d="M161.75,18c-1.8.8-3.2,1.7-4.7,1.9-.8.1-2.1-1.1-2.4-1.9-.2-.6,1-1.8,1.8-2.4C158.55,14.21,159.85,15.61,161.75,18Z" transform="translate(-1.25 -1.01)"/>
  <path id="_Path_74" data-name="&lt;Path&gt;" class="cls-21" d="M185.45,151H303c8.3,0,12.5,4.1,12.6,12.5v149.4c0,4.1-.8,7.9-4.2,10.7a8.89,8.89,0,0,1-6.4,2.3,13.35,13.35,0,0,0-2,0H68.05a16.66,16.66,0,0,1-6.3-1c-3.7-1.5-5.5-4.7-6-8.6a41,41,0,0,1-.2-5V164.91c0-3.7.2-7.3,2.7-10.3a9.09,9.09,0,0,1,7.3-3.7h7Q129,151.06,185.45,151Z" transform="translate(-1.25 -1.01)"/>
  <path id="_Path_75" data-name="&lt;Path&gt;" class="cls-33" d="M103.35,338.91c7.4,0,12.3,4.6,12.4,11.8.1,7.4-4.6,12.1-11.7,12.6-7.7.5-12.8-6.2-12.7-12.2C91.55,343.81,96.05,338.91,103.35,338.91Z" transform="translate(-1.25 -1.01)"/>
  <path id="_Path_76" data-name="&lt;Path&gt;" class="cls-34" d="M168.65,140.11c.1,2.2-1,3.7-3,3.8a4,4,0,0,1-4.1-3.5,3.84,3.84,0,0,1,3.5-3.5C167.35,136.91,168.55,137.91,168.65,140.11Z" transform="translate(-1.25 -1.01)"/>
  <path id="_Path_77" data-name="&lt;Path&gt;" class="cls-35" d="M189.45,140.21a4,4,0,0,1-3.3,3.8,3.6,3.6,0,0,1-3.7-3.2c-.2-2.4,1-3.7,3.4-3.8A3.38,3.38,0,0,1,189.45,140.21Z" transform="translate(-1.25 -1.01)"/>
  <path id="_Path_78" data-name="&lt;Path&gt;" class="cls-36" d="M287.65,446.41c-4.6-.1-8.7-3.9-8.6-8,.1-4.5,4.4-8.7,8.8-8.7,5.4,0,9.1,3.7,9.1,8.9C296.85,443.31,293,446.61,287.65,446.41Z" transform="translate(-1.25 -1.01)"/>
  <path id="_Path_79" data-name="&lt;Path&gt;" class="cls-37" d="M73.85,14.91c17.3-1.3,30.8,16.4,30.9,30,.1,17.8-15.9,32.3-31.1,31.6-17.5-.8-30.9-13.5-31-31C42.55,28.61,57.35,13.71,73.85,14.91Z" transform="translate(-1.25 -1.01)"/>
  <path id="_Path_80" data-name="&lt;Path&gt;" class="cls-38" d="M569.15,430H460.25c-1.3,0-2.7.1-4,0-4.7-.7-6.8-6.2-6.8-17.3V180.11c0-9.3,1.9-14.7,5.8-15.8a13.46,13.46,0,0,1,4-.2h219.9a15.06,15.06,0,0,1,3,.1c4.3.5,7,6.7,7.4,16.9.1,2,0,4,0,5.9v219.6c0,2.4.1,4.8-.1,7.1-.5,9.6-3.2,15.6-7.3,16.3a26.73,26.73,0,0,1-4,.1Q623.55,430,569.15,430Z" transform="translate(-1.25 -1.01)"/>
  <path id="_Path_81" data-name="&lt;Path&gt;" class="cls-39" d="M633.05,454c15,0,30,.1,44.9-.1,4.7-.1,6.7,1,6.6,6.7-.3,10.6-.1,21.3-.1,31.9,0,6.4-1,7.4-7.6,7.4h-86.8a26.73,26.73,0,0,1-4-.1,5,5,0,0,1-4.6-5.4v-34.9c0-4.4,1.2-5.5,5.7-5.6C602.45,454,617.75,454,633.05,454Z" transform="translate(-1.25 -1.01)"/>
  <path id="_Path_82" data-name="&lt;Path&gt;" class="cls-39" d="M506.55,454h45c5.5,0,6.9,1.1,6.9,6.6.1,10.8.1,21.7,0,32.5,0,5-1.9,6.9-7,6.9h-89.9c-5,0-7-1.9-7-6.9-.1-10.8-.1-21.7,0-32.5,0-4.9,1.8-6.6,6.6-6.6Z" transform="translate(-1.25 -1.01)"/>
  <path id="_Path_83" data-name="&lt;Path&gt;" class="cls-40" d="M65.25,35.91a41.7,41.7,0,0,1-5,0,3.93,3.93,0,0,1-3.6-5.3c2.3-7.6,13.4-13.3,21-10.7a8.94,8.94,0,0,1,5.8,6.3c1,3.4,0,5.1-3.2,6.9C77.05,34.71,70.75,35.91,65.25,35.91Z" transform="translate(-1.25 -1.01)"/>
</svg>